<?xml version="1.0" encoding="UTF-8"?>
<svg width="966.12" height="966.11" version="1.1" viewBox="0 0 255.62 255.62" xmlns="http://www.w3.org/2000/svg" xmlns:cc="http://creativecommons.org/ns#" xmlns:dc="http://purl.org/dc/elements/1.1/" xmlns:rdf="http://www.w3.org/1999/02/22-rdf-syntax-ns#"><title>P-221123</title><path transform="translate(40.525 3.867)" d="M210.12 123.94A122.84 122.84 0 0 1 87.28 246.78 122.84 122.84 0 0 1-35.56 123.94 122.84 122.84 0 0 1 87.28 1.1a122.84 122.84 0 0 1 122.84 122.84z" fill="#fff"/><path transform="translate(40.525 3.867)" d="M87.285-2.809c-69.956 0-126.75 56.794-126.75 126.75s56.796 126.75 126.75 126.75c69.956 0 126.75-56.794 126.75-126.75S157.241-2.809 87.285-2.809zm0 7.83c65.724 0 118.92 53.197 118.92 118.92 0 65.725-53.196 118.92-118.92 118.92s-118.92-53.195-118.92-118.92c0-65.724 53.198-118.92 118.92-118.92z" fill="#000064"/><path d="m181.24 147.37-8.5 20.223h9.639l1.583-3.766h-5.067l2.104-5.005h5.067l1.582-3.766h-5.066l1.647-3.92h5.066l1.584-3.766z" fill="#000064"  /><path d="m90.044 89.176-17.378 41.692h20.301l3.9-9.302H86.424l3.36-7.93h9.265l3.564-8.519H93.35l3.227-7.5 9.108.078 3.33-8.441z" fill="red"  /><g fill="#000064"><path d="m83.817 153.686.802-1.897c1.17-2.97.66-4.737-5.22-4.737-5.857 0-7.967 1.767-9.137 4.738l-4.625 11.14c-1.17 2.97-.437 4.737 5.42 4.737s7.966-1.767 9.137-4.737l2.649-6.629h-6.854l-1.19 3.428h1.307l-1.416 3.447c-.259.666-.421 1.101-2.063 1.101-1.666 0-1.864-.435-1.605-1.101l4.39-11.532c.26-.666.822-1.101 2.39-1.101 1.593 0 1.79.435 1.532 1.1l-.735 2.043zM94.208 167.446h4.44l2.2-20.012h-6l-13.865 20.012h5.41l2.344-3.957h5.843zm-2.644-7.84 4.268-6.193-.774 6.193zM118.765 153.526l.733-1.831c1.165-2.911.455-4.562-4.313-4.488-4.687.074-6.856 1.701-7.902 4.438l-.545 1.426c-1.524 3.989 5.006 6.189 4.026 8.674l-.545 1.381c-.205.519-.737 1.109-1.989 1.109-1.251 0-1.181-.928-.98-1.448l.67-1.725-4.57.039-.928 2.3c-1.087 2.693-.844 4.45 4.36 4.45 5.183 0 6.829-1.655 7.93-4.4l1.093-2.717c1.09-3.311-5.301-5.706-4.265-8.126.154-.36.223-.498.489-1.068.231-.498.95-1.003 1.591-1.03.917-.04 1.52.586 1.31 1.095l-.786 1.92zM131.675 147.046c-5.202 0-6.907 1.793-8.169 4.807l-4.763 11.303c-1.262 3.014-1.043 4.807 4.159 4.807s7.007-1.793 8.269-4.807l4.763-11.303c1.262-3.014.965-4.807-4.259-4.807zm-.169 4.852-4.732 11.02c-.288.671-.922 1.476-2.315 1.476-1.415 0-1.456-.805-1.167-1.477l4.732-11.019c.288-.672.978-1.45 2.37-1.45 1.415 0 1.4.778 1.112 1.45zM140.285 163.696l6.886-16.355h-4.853l-8.425 20.282h9.806l1.738-3.927z"/></g><path d="M26.574 130.796c10.854.036 12.526-2.471 15.384-9.704l2.611-6.607h-8.762l-2.272 5.692c-.55 1.364-1.128 2.256-3.594 2.256-2.505 0-2.322-.892-1.772-2.256L36.84 99.49c.55-1.363 1.128-2.255 3.594-2.255 2.505 0 2.322.891 1.772 2.255l-2.665 5.863h8.762l3.003-7.077c1.683-3.967 1.039-9.301-9.072-9.235-9.757.065-10.546 2.326-13.113 8.373l-10.054 23.68c-2.568 6.047 1.193 9.683 7.506 9.703z" fill="red"/><path transform="translate(15.925 -19.784)" d="m139.42 167.08h4.672l-8.5 20.222h-4.672z" fill="#000064"  /><path transform="translate(15.925 -19.784)" d="m190.49 108.74-17.487 41.845h9.612l8.47-20.269-1.103 20.269h8.313l17.487-41.845h-9.612l-7.84 18.76.073-18.76z" fill="red"  /><path transform="translate(15.925 -19.784)" d="m148.58 167-8.737 20.376h4.803l4.232-9.87-.552 9.87h4.153L161.216 167h-4.802l-3.917 9.135.036-9.135z" fill="#000064"  /><g fill="red"><path transform="translate(15.925 -19.784)" d="m44.122 108.66-17.501 41.935h9.4l6.99-16.749h5.444l-6.99 16.749h9.4l17.5-41.935h-9.399L52.2 124.877h-5.446l6.768-16.217z"  /><path d="m148.805 88.896-17.183 41.594h9.546l6.274-15.137h3.613c1.827 0 1.286 1.36.887 2.318l-4.534 10.91c-.545 1.31-.39 1.91.443 1.91h9.818c-.471-.625-.572-1.28-.323-1.876l4.483-10.739c1.447-3.466.708-6.133-2.822-6.818 4.18-.21 6.716-2.566 8.481-6.75l2.347-5.561c2.703-6.407-1.2-9.85-6.087-9.85zm6.121 8.63h2.673c1.414 0 2.661.996 1.686 3.15l-1.109 2.45c-.997 2.203-2.317 2.863-3.536 2.863h-3.277z"/><path transform="translate(15.925 -19.784)" d="M170.17 108.81c-4.54 0-9.755 3.965-11.693 8.89l-9.488 24.107c-1.938 4.925.157 8.89 4.697 8.89h6.702c4.54 0 9.755-3.965 11.693-8.89l9.488-24.107c1.938-4.925-.157-8.89-4.697-8.89zm-1.27 8.748h2.99c.552 0 .79.5.533 1.122l-9.278 22.45c-.257.622-.908 1.123-1.46 1.123h-2.99c-.552 0-.79-.501-.533-1.123l9.278-22.45c.257-.622.909-1.122 1.46-1.122z"  /><path d="M78.541 33.543c-.31 6.414.608 12.758 6.499 18.871 1.261 1.309 1.514 2.632 1.527 3.954.025 2.536 1.188 4.609 2.571 6.52.635.878 1.166 1.671 1.44 3.544.608 4.161 3.73 8.487 5.648 9.967l17.496 13.51-8.97 44.627h11.374L146.9 87.574c3.062-4.673-.47-9.827-4.424-12.764l-32.104-23.843c-3.432-2.55-5.784-6.393-7.517-10.65-.713 3.998-.621 8.44 1.8 13.156.392.763.446 1.402.47 1.958.075 1.688 1.108 3.08 2.898 4.462l14.76 11.393c3.682 2.8 4.826 7.446 3.915 13.586l7.283 5.325-16.248 26.31 7.243-30.812c1.609-6.808.257-11.462-3.876-14.094L87.78 46.465c-4.253-3.208-7.083-7.69-9.24-12.92zm9.495 17.907c.483 1.027 1.05 2.044 2.373 3.287 4.226 3.97 14.261 11.015 23.591 17.857.8.587.034 1.797-.804 1.169l-20.34-15.266c-4.667-3.502-4.412-5.346-4.82-7.048zm19.18 1.021c.483 1.027 1.318 2.609 2.64 3.851 4.227 3.97 17.816 14.204 27.146 21.046.8.587.021 1.813-.803 1.168l-24.874-19.463c-4.597-3.596-3.701-4.9-4.109-6.602zm-14.402 10.63c.484 1.027 1.052 2.044 2.374 3.287 4.226 3.97 9.587 7.691 18.917 14.534.8.587.029 1.803-.804 1.169L97.635 70.149c-4.641-3.538-4.412-5.346-4.82-7.048zM106.24 207.956l22.003 12.134 22.003-12.134v11.476l-22.003 11.988-22.003-11.988z"/></g><path d="M106.24 184.86v22.204a.172.172 0 1 0 .343 0v-10.541l21.66 11.801 21.658-11.801v10.54a.172.172 0 1 0 .344 0v-22.204l-22.003 12.134z" fill="#000065"/></svg>
