<?xml version='1.0' encoding='utf-8'?>
<svg xmlns="http://www.w3.org/2000/svg" id="Layer_1" data-name="Layer 1" viewBox="0 0 300 300" width="300" height="300"><defs><clipPath id="bz_circular_clip"><circle cx="150.0" cy="150.0" r="150.0" /></clipPath></defs><g clip-path="url(#bz_circular_clip)"><path d="M-1.5-1.5h303v303H-1.5Z" fill="#17191b" /><path d="M150,65c-35.09,0-63.87,29.17-63.87,64.72s28.78,64.73,63.87,64.73,63.87-29.17,63.87-64.73S185.09,65,150,65Zm0,109.54c-24.56,0-44.22-19.92-44.22-44.82s19.66-44.8,44.22-44.8,44.22,19.91,44.22,44.8C193.51,154.62,173.86,174.54,150,174.54Zm56.85,14.22L150,213.66l-56.85-24.9-9.82,17.78L150,235l66.67-28.46Z" fill="#fff" /></g></svg>